<?xml version="1.0" encoding="UTF-8" standalone="no"?>
<svg
   xmlns:dc="http://purl.org/dc/elements/1.1/"
   xmlns:cc="http://creativecommons.org/ns#"
   xmlns:rdf="http://www.w3.org/1999/02/22-rdf-syntax-ns#"
   xmlns:svg="http://www.w3.org/2000/svg"
   xmlns="http://www.w3.org/2000/svg"
   xmlns:sodipodi="http://sodipodi.sourceforge.net/DTD/sodipodi-0.dtd"
   xmlns:inkscape="http://www.inkscape.org/namespaces/inkscape"
   inkscape:version="1.0 (4035a4fb49, 2020-05-01)"
   sodipodi:docname="jsonparser.svg"
   version="1.1"
   id="file-json-o"
   height="22.405165"
   width="42.832802">
  <metadata
     id="metadata13">
    <rdf:RDF>
      <cc:Work
         rdf:about="">
        <dc:format>image/svg+xml</dc:format>
        <dc:type
           rdf:resource="http://purl.org/dc/dcmitype/StillImage" />
        <dc:title></dc:title>
      </cc:Work>
    </rdf:RDF>
  </metadata>
  <defs
     id="defs11" />
  <sodipodi:namedview
     inkscape:current-layer="file-json-o"
     inkscape:window-maximized="1"
     inkscape:window-y="-8"
     inkscape:window-x="-8"
     inkscape:cy="14.910645"
     inkscape:cx="37.556405"
     inkscape:zoom="13.986667"
     fit-margin-bottom="0"
     fit-margin-right="0"
     fit-margin-left="0"
     fit-margin-top="0"
     showgrid="false"
     id="namedview9"
     inkscape:window-height="1017"
     inkscape:window-width="1920"
     inkscape:pageshadow="2"
     inkscape:pageopacity="0"
     guidetolerance="10"
     gridtolerance="10"
     objecttolerance="10"
     borderopacity="1"
     bordercolor="#666666"
     pagecolor="#ffffff" />
  <path
     style="fill:#19426c;fill-opacity:1"
     class="ti-file-json-o-badge"
     d="m 24.222647,9.6608163 a 3.224,3.224 0 0 1 0.266,1.4539997 3.436,3.436 0 0 1 -0.266,1.487 0.767,0.767 0 0 1 -1.468,0 3.425,3.425 0 0 1 -0.266,-1.487 3.213,3.213 0 0 1 0.266,-1.4539997 0.781,0.781 0 0 1 1.468,0 z m 10.266,-4.514 V 17.146816 H 8.4886476 V 5.1468163 Z m -20.973,2 h -2.03 l -0.008,5.3249997 a 2.084,2.084 0 0 1 -0.058,0.542 0.908,0.908 0 0 1 -0.163,0.34 0.537,0.537 0 0 1 -0.262,0.174 1.235,1.235 0 0 1 -0.356,0.048 0.946,0.946 0 0 1 -0.501,-0.16 c -0.1709997,-0.105 -0.1629997,-0.27 -0.2949994,-0.498 l -1.354,0.924 a 2.396,2.396 0 0 0 0.91,0.987 3.361,3.361 0 0 0 1.5509994,0.318 2.949,2.949 0 0 0 1.137,-0.201 2.216,2.216 0 0 0 0.8,-0.547 2.274,2.274 0 0 0 0.472,-0.801 2.97,2.97 0 0 0 0.157,-0.977 z m 6.198,5.5319997 a 2.304,2.304 0 0 0 -0.345,-1.318 2.264,2.264 0 0 0 -0.982,-0.795 l -0.825,-0.369 a 7.78,7.78 0 0 1 -0.737,-0.3499997 0.46,0.46 0 0 1 -0.267,-0.42 0.448,0.448 0 0 1 0.188,-0.393 0.914,0.914 0 0 1 0.522,-0.13 1.68,1.68 0 0 1 0.696,0.143 3.158,3.158 0 0 1 0.664,0.415 l 0.898,-1.282 a 2.91,2.91 0 0 0 -1.072,-0.784 3.08,3.08 0 0 0 -1.185,-0.249 2.678,2.678 0 0 0 -1.018,0.19 2.479,2.479 0 0 0 -0.8,0.516 2.373,2.373 0 0 0 -0.522,0.76 2.3,2.3 0 0 0 -0.188,0.932 2.487,2.487 0 0 0 0.11,0.7589997 2.226,2.226 0 0 0 0.298,0.612 2.15,2.15 0 0 0 0.438,0.462 2.393,2.393 0 0 0 0.522,0.315 l 0.847,0.404 c 0.146,0.063 0.275,0.12 0.387,0.171 a 2.12,2.12 0 0 1 0.288,0.16 0.675,0.675 0 0 1 0.182,0.18 0.42,0.42 0 0 1 0.063,0.237 0.482,0.482 0 0 1 -0.183,0.403 0.972,0.972 0 0 1 -0.59,0.143 1.814,1.814 0 0 1 -0.8,-0.208 3.372,3.372 0 0 1 -0.79,-0.54 l -1.024,1.4 a 3.478,3.478 0 0 0 1.238,0.837 3.647,3.647 0 0 0 1.333,0.267 2.956,2.956 0 0 0 1.128,-0.201 2.514,2.514 0 0 0 0.831,-0.54 2.285,2.285 0 0 0 0.517,-0.79 2.537,2.537 0 0 0 0.178,-0.937 z m 6.775,-1.568 a 5.963,5.963 0 0 0 -0.219,-1.6849997 3.82,3.82 0 0 0 -0.61,-1.246 2.546,2.546 0 0 0 -0.949,-0.772 2.997,2.997 0 0 0 -2.449,0 2.6,2.6 0 0 0 -0.943,0.766 3.724,3.724 0 0 0 -0.611,1.247 5.993,5.993 0 0 0 -0.219,1.6899997 6.127,6.127 0 0 0 0.219,1.704 3.847,3.847 0 0 0 0.61,1.27 2.656,2.656 0 0 0 0.944,0.79 2.883,2.883 0 0 0 2.449,0 2.639,2.639 0 0 0 0.948,-0.79 3.885,3.885 0 0 0 0.611,-1.27 6.163,6.163 0 0 0 0.219,-1.704 z m 7,-3.9639997 h -2 v 3.9999997 l -2,-3.9999997 h -2 v 7.9999997 h 2 v -3 l 2,3 h 2 z"
     id="path4" />
  <path
     style="fill:#19426c;fill-opacity:1;stroke-width:1.47087"
     id="path864"
     d="m 35.779988,19.663465 c 0.294173,0 0.52657,-0.05884 0.698662,-0.172091 0.166664,-0.10883 0.305249,-0.25548 0.404489,-0.428023 0.09708,-0.172092 0.157383,-0.363305 0.182388,-0.57511 0.02368,-0.195231 0.03604,-0.391682 0.03677,-0.588347 V 13.9815 c 0,-0.520687 0.09414,-0.951651 0.282407,-1.285539 0.1669,-0.309486 0.391575,-0.584103 0.661891,-0.808977 0.250047,-0.20298 0.517746,-0.350067 0.794269,-0.441261 0.277994,-0.08825 0.505979,-0.141203 0.685425,-0.157383 V 11.2148 c -0.232059,-0.02768 -0.461029,-0.07693 -0.683954,-0.147087 -0.29107,-0.08834 -0.561593,-0.233855 -0.79574,-0.428023 -0.279024,-0.235589 -0.50467,-0.527915 -0.661891,-0.8575157 -0.188271,-0.367717 -0.282407,-0.853104 -0.282407,-1.45616 v -3.724239 c 0,-0.195625 -0.01177,-0.398605 -0.03677,-0.611881 -0.02162,-0.201977 -0.08369,-0.397542 -0.182388,-0.575109 -0.09928,-0.172544 -0.237825,-0.319201 -0.404489,-0.428023 -0.172092,-0.114731 -0.404489,-0.172095 -0.698662,-0.172095 H 34.456206 V 0.07149836 h 3.110887 c 0.277994,0 0.59276,0.06913 0.941356,0.208863 0.353008,0.138262 0.679541,0.342712 0.98254,0.61188095 0.301528,0.26916899 0.557459,0.61188199 0.770735,1.02813699 0.211805,0.416256 0.319178,0.903113 0.319178,1.45616 v 4.603818 c -0.02294,0.677388 0.288276,1.32284 0.832512,1.7268 0.227984,0.1735617 0.470678,0.2941727 0.733963,0.3677167 0.260344,0.07354 0.489799,0.110315 0.685425,0.110315 v 2.131288 c -0.195626,0 -0.426552,0.03677 -0.685425,0.111786 -0.262491,0.07187 -0.511068,0.187208 -0.735434,0.341242 -0.237943,0.164625 -0.438437,0.377647 -0.588348,0.625119 -0.169841,0.288723 -0.254019,0.619814 -0.242693,0.954594 v 4.750905 c 0,0.555988 -0.107373,1.039904 -0.319178,1.456159 -0.190919,0.387982 -0.452263,0.73711 -0.770735,1.029608 -0.288952,0.259842 -0.620927,0.467392 -0.98107,0.613352 -0.298909,0.126142 -0.618544,0.195957 -0.942826,0.205922 h -3.109416 v -2.741699 z"
     sodipodi:nodetypes="sccccsccccccccsscccsccscccscccccccccsccccccs" />
  <path
     style="fill:#19426c;fill-opacity:1;stroke-width:1.47322"
     d="m 7.1708022,2.7519537 c -0.294173,0 -0.526571,0.059018 -0.697191,0.1726429 -0.166811,0.1083658 -0.30547,0.2550549 -0.404489,0.4279175 -0.09928,0.1784896 -0.161854,0.3751993 -0.183859,0.5784258 -0.02412,0.2037181 -0.03648,0.4086822 -0.03677,0.6138399 v 3.7361613 c 0,0.6049866 -0.09414,1.0919275 -0.280936,1.4608216 -0.188271,0.3688943 -0.408902,0.6551563 -0.661891,0.8602613 -0.234662,0.193677 -0.505052,0.339085 -0.79574,0.427917 -0.223263,0.07098 -0.452792,0.120379 -0.685425,0.147558 v 0.07378 c 0.179446,0.01771 0.407431,0.07083 0.685425,0.160838 0.276523,0.08853 0.542751,0.236092 0.79574,0.442674 0.252989,0.205104 0.47362,0.475135 0.661891,0.810091 0.1868,0.334957 0.280936,0.7673 0.280936,1.289654 v 3.930938 c 0,0.18002 0.01177,0.377747 0.03677,0.59023 0.02501,0.212483 0.08678,0.404309 0.183859,0.575476 0.09869,0.173938 0.237325,0.321674 0.404489,0.430869 0.17062,0.11657 0.403018,0.172642 0.697191,0.172642 h 1.322311 v 2.750476 h -3.109416 c -0.324282,-0.01003 -0.643917,-0.08004 -0.942826,-0.206582 -0.767544,-0.311017 -1.391736,-0.898261 -1.750334,-1.646743 -0.221307,-0.454856 -0.330754,-0.956285 -0.319178,-1.462297 v -4.766114 c 0.0103,-0.336638 -0.07457,-0.669361 -0.245635,-0.959125 -0.150382,-0.247027 -0.350214,-0.460065 -0.586877,-0.625645 -0.224425,-0.154406 -0.4730019,-0.27011 -0.73543387,-0.342334 -0.214011,-0.06742 -0.436216,-0.10515 -0.66042,-0.112144 v -2.139587 c 0.179446,0 0.400076,-0.03394 0.66042,-0.107717 C 1.3678442,9.8765218 1.8443472,9.4952782 2.1257242,8.9788863 2.2976832,8.6588822 2.3824052,8.2990228 2.3713592,7.9356533 V 3.3170971 c 0,-0.5562932 0.105902,-1.0447087 0.319178,-1.4608216 C 2.9023422,1.4372123 3.1582732,1.0934021 3.4612722,0.82337144 3.7628002,0.55334075 4.0893332,0.34823625 4.4408712,0.20953163 4.7909372,0.06935131 5.1057032,0 5.3836972,0 h 3.109416 v 2.7519507 z"
     id="path864-2"
     sodipodi:nodetypes="sccccsccccccccsssscscccccccccccccccscccsccs" />
</svg>
