<?xml version="1.0" encoding="UTF-8" standalone="no"?>
<svg
   xmlns:svg="http://www.w3.org/2000/svg"
   xmlns="http://www.w3.org/2000/svg"
   viewBox="0 0 16 16">
  <path
     d="m 13.392954,11.240392 c 0.110116,0 0.197107,-0.02203 0.261525,-0.06442 0.06239,-0.04074 0.114261,-0.09563 0.151409,-0.160218 0.03634,-0.06442 0.05891,-0.135993 0.06827,-0.215276 0.0089,-0.07308 0.01349,-0.146616 0.01376,-0.220232 V 9.1135078 c 0,-0.194905 0.03524,-0.356224 0.105711,-0.481206 0.06247,-0.115847 0.146575,-0.218642 0.24776,-0.302818 0.0936,-0.07598 0.193804,-0.131038 0.297313,-0.165173 0.104059,-0.03303 0.189399,-0.05286 0.256569,-0.05891 v -0.02753 c -0.08686,-0.01036 -0.172573,-0.0288 -0.256019,-0.05506 -0.108953,-0.03307 -0.210216,-0.08754 -0.297863,-0.160219 -0.104445,-0.08819 -0.188909,-0.19761 -0.24776,-0.320986 -0.07047,-0.137645 -0.105711,-0.319336 -0.105711,-0.545073 v -1.394064 c 0,-0.073227 -0.0044,-0.1492066 -0.01376,-0.2290406 -0.0081,-0.075603 -0.03133,-0.1488076 -0.06827,-0.2152748 -0.03716,-0.064587 -0.08902,-0.1194839 -0.151409,-0.1602186 -0.06442,-0.042946 -0.151409,-0.064419 -0.261525,-0.064419 H 12.897433 V 3.9066873 h 1.164474 c 0.104059,0 0.221883,0.025877 0.352371,0.078182 0.132138,0.051755 0.254367,0.1282847 0.367786,0.2290406 0.112868,0.1007559 0.208669,0.2290409 0.288503,0.3848543 0.07928,0.1558138 0.119475,0.3380553 0.119475,0.5450727 v 1.7233109 c -0.0086,0.253561 0.107908,0.495168 0.311628,0.646379 0.08534,0.06497 0.176185,0.110116 0.274739,0.137644 0.09745,0.02753 0.183342,0.04129 0.256569,0.04129 v 0.797788 c -0.07323,0 -0.159668,0.01376 -0.256569,0.04184 -0.09826,0.0269 -0.191304,0.07008 -0.27529,0.127735 -0.08907,0.06162 -0.164117,0.141361 -0.220231,0.233995 -0.06358,0.108076 -0.09508,0.23201 -0.09085,0.357326 v 1.7783682 c 0,0.208118 -0.04019,0.389258 -0.119475,0.545072 -0.07146,0.14523 -0.169292,0.275916 -0.288503,0.385405 -0.108161,0.09727 -0.232427,0.174955 -0.367236,0.229591 -0.111889,0.04722 -0.231535,0.07335 -0.352921,0.07708 H 12.89798 v -1.026278 z" />
  <path
     d="m 2.6306639,4.9100407 c -0.1101154,0 -0.1971072,0.022092 -0.260974,0.064624 -0.062441,0.040564 -0.1143441,0.095473 -0.1514091,0.1601789 -0.037163,0.066813 -0.060586,0.1404452 -0.068823,0.2165174 -0.00903,0.076257 -0.013655,0.152979 -0.013764,0.229774 v 1.3985278 c 0,0.22646 -0.035239,0.408733 -0.1051605,0.546818 -0.070474,0.138085 -0.153061,0.245239 -0.2477604,0.322015 -0.087839,0.0725 -0.1890521,0.126926 -0.297863,0.160178 -0.083572,0.02657 -0.1694901,0.04506 -0.2565698,0.05523 v 0.02762 c 0.067171,0.0066 0.1525105,0.02651 0.2565698,0.0602 0.1035086,0.03314 0.2031636,0.08837 0.297863,0.165702 0.094699,0.07677 0.1772864,0.177854 0.2477604,0.303235 0.069923,0.125382 0.1051605,0.287218 0.1051605,0.482746 v 1.4714362 c 0,0.06739 0.00441,0.141399 0.013764,0.220936 0.00936,0.07954 0.032484,0.151342 0.068823,0.215414 0.036942,0.06511 0.088836,0.120409 0.1514091,0.161283 0.063867,0.04364 0.1508586,0.06462 0.260974,0.06462 h 0.4949702 v 1.029563 H 1.9617111 C 1.8403252,12.262917 1.7206787,12.23671 1.6087905,12.189343 1.3214819,12.072923 1.087833,11.853104 0.95360187,11.572931 0.87076178,11.402668 0.82979336,11.214972 0.83412651,11.025561 V 9.2414998 C 0.83798203,9.1154888 0.80621332,8.9909438 0.74217991,8.8824788 0.6858886,8.7900108 0.61108707,8.7102658 0.52249892,8.6482858 0.43849168,8.5904878 0.34544385,8.5471778 0.24720978,8.5201428 0.16710074,8.4949058 0.08392451,8.4807828 0,8.4781648 v -0.800895 c 0.0671706,0 0.14975728,-0.01271 0.24720978,-0.04032 0.21127893,-0.06002 0.38964452,-0.202733 0.49497013,-0.39603 0.064368,-0.119784 0.0960814,-0.254488 0.0919466,-0.390505 V 5.1215864 c 0,-0.2082328 0.0396415,-0.3910575 0.11947536,-0.5468176 C 1.0328852,4.4179042 1.1286858,4.2892084 1.242105,4.18813 1.3549736,4.0870516 1.4772021,4.0102764 1.6087905,3.9583562 1.7398279,3.9058836 1.8576518,3.8799239 1.9617111,3.8799239 h 1.163923 v 1.0301159 z" />
</svg>
